<svg width="56" height="56" viewBox="0 0 56 56" fill="none" xmlns="http://www.w3.org/2000/svg">
<g clip-path="url(#clip0_17_364)">
<path d="M56 28C56 24.575 55.384 21.2941 54.2584 18.2609L28 17.0435L1.74158 18.2608C0.616109 21.2941 0 24.575 0 28C0 31.425 0.616109 34.7059 1.74158 37.7391L28 38.9565L54.2584 37.7392C55.384 34.7059 56 31.425 56 28Z" fill="#0052B4"/>
<path d="M28 55.9999C40.039 55.9999 50.3022 48.4014 54.2584 37.739H1.74158C5.69778 48.4014 15.961 55.9999 28 55.9999Z" fill="#FF9811"/>
<path d="M1.74158 18.2609H54.2585C50.3022 7.5985 40.039 0 28 0C15.961 0 5.69778 7.5985 1.74158 18.2609Z" fill="#D80027"/>
</g>
<defs>
<clipPath id="clip0_17_364">
<rect width="56" height="56" fill="white"/>
</clipPath>
</defs>
</svg>
